<svg width="108" height="16" viewBox="0 0 108 16" fill="none" xmlns="http://www.w3.org/2000/svg">
<path d="M1.5 7C0.947715 7 0.5 7.44772 0.5 8C0.5 8.55228 0.947715 9 1.5 9V7ZM107.707 8.70711C108.098 8.31658 108.098 7.68342 107.707 7.29289L101.343 0.928932C100.953 0.538408 100.319 0.538408 99.9289 0.928932C99.5384 1.31946 99.5384 1.95262 99.9289 2.34315L105.586 8L99.9289 13.6569C99.5384 14.0474 99.5384 14.6805 99.9289 15.0711C100.319 15.4616 100.953 15.4616 101.343 15.0711L107.707 8.70711ZM1.5 9H107V7H1.5V9Z" fill="white"/>
</svg>
