<svg width="108" height="16" viewBox="0 0 108 16" fill="none" xmlns="http://www.w3.org/2000/svg">
<path d="M1 7C0.447715 7 0 7.44772 0 8C0 8.55228 0.447715 9 1 9V7ZM107.207 8.70711C107.598 8.31658 107.598 7.68342 107.207 7.29289L100.843 0.928932C100.453 0.538408 99.8195 0.538408 99.4289 0.928932C99.0384 1.31946 99.0384 1.95262 99.4289 2.34315L105.086 8L99.4289 13.6569C99.0384 14.0474 99.0384 14.6805 99.4289 15.0711C99.8195 15.4616 100.453 15.4616 100.843 15.0711L107.207 8.70711ZM1 9H106.5V7H1V9Z" fill="#C3D62F"/>
</svg>
