<svg width="26" height="25" viewBox="0 0 26 25" fill="none" xmlns="http://www.w3.org/2000/svg">
<path fill-rule="evenodd" clip-rule="evenodd" d="M12 2.04263C6.36044 2.526 2 7.05832 2 12.5C2 18.2593 6.88433 23 13 23C19.1157 23 24 18.2593 24 12.5C24 7.05832 19.6396 2.526 14 2.04263V12.4475L20.2952 16.4035C20.7628 16.6973 20.9037 17.3146 20.6098 17.7822C20.316 18.2499 19.6987 18.3907 19.2311 18.0969L12.4679 13.8469C12.308 13.7464 12.1863 13.608 12.1071 13.4508C12.0507 13.3392 12.0145 13.2156 12.0035 13.0848C12.0007 13.0513 11.9995 13.0176 12 12.9838V2.04263ZM13 0C5.86084 0 0 5.55676 0 12.5C0 19.4432 5.86084 25 13 25C20.1392 25 26 19.4432 26 12.5C26 5.55676 20.1392 0 13 0Z" fill="#2C3447"/>
</svg>
