<svg width="27" height="20" viewBox="0 0 27 20" fill="none" xmlns="http://www.w3.org/2000/svg">
<path fill-rule="evenodd" clip-rule="evenodd" d="M0 0H27V20H0V0ZM2 2V18H25V2H2ZM13.7812 8.77964L8.92134 5.63216L4.98824 3.12796C4.52198 2.83109 3.92544 2.98075 3.65583 3.46223C3.38622 3.94371 3.54563 4.57468 4.01188 4.87155L7.93514 7.36948L12.9503 10.6175C13.1185 10.8322 13.3609 10.9616 13.6169 10.9927C13.9941 11.0931 14.3972 10.9509 14.6278 10.6142L23.5437 4.83917C24.0072 4.53892 24.1396 3.91975 23.8393 3.45621C23.5391 2.99267 22.9199 2.86029 22.4564 3.16054L13.7812 8.77964Z" fill="#2C3447"/>
</svg>
