<svg width="23" height="16" viewBox="0 0 23 16" fill="none" xmlns="http://www.w3.org/2000/svg">
<path fill-rule="evenodd" clip-rule="evenodd" d="M22 1H1V15H22V1ZM0 0V16H23V0H0ZM11.7824 7.37468L6.67395 4.06625L2.74413 1.56413C2.511 1.4157 2.21273 1.49052 2.07792 1.73126C1.94312 1.972 2.02282 2.28749 2.25595 2.43592L6.18086 4.93491L11.3064 8.25441C11.3099 8.26023 11.3135 8.26602 11.3172 8.27175C11.4129 8.41961 11.5736 8.50008 11.7376 8.49998C11.9348 8.54631 12.1436 8.46137 12.2513 8.27238C12.2543 8.26725 12.2571 8.26208 12.2598 8.25688L21.2718 2.41958C21.5036 2.26946 21.5698 1.95987 21.4197 1.7281C21.2695 1.49633 20.96 1.43015 20.7282 1.58027L11.7824 7.37468Z" fill="#C3D62F"/>
</svg>
