<svg width="48" height="53" viewBox="0 0 48 53" fill="none" xmlns="http://www.w3.org/2000/svg">
<path fill-rule="evenodd" clip-rule="evenodd" d="M22.0919 4.01385C21.1017 7.89705 16.5497 9.61053 13.2447 7.34411C11.7534 6.32141 9.87152 7.9359 10.6556 9.5654C12.3932 13.1766 10.0075 17.4151 6.01892 17.8034C4.21911 17.9785 3.81531 20.4249 5.46336 21.1692C9.11563 22.8186 10.0126 27.599 7.20673 30.4603C5.94059 31.7514 7.20379 33.885 8.94467 33.3958C12.8027 32.3117 16.5626 35.3971 16.2523 39.3925C16.1123 41.1954 18.4514 42.0179 19.4706 40.5241C21.7292 37.2137 26.5927 37.1605 28.9232 40.4206C29.9748 41.8917 32.2954 41.0182 32.1159 39.2188C31.7182 35.2311 35.4097 32.0641 39.2905 33.0635C41.0417 33.5144 42.2579 31.3537 40.9637 30.0906C38.0959 27.2915 38.888 22.4926 42.5032 20.7636C44.1346 19.9834 43.6773 17.5465 41.8741 17.4107C37.878 17.1099 35.4001 12.9246 37.0582 9.27627C37.8063 7.63 35.8896 6.0571 34.421 7.11221C31.1664 9.45047 26.578 7.83708 25.5031 3.9765C25.018 2.23445 22.5386 2.2616 22.0919 4.01385ZM27.4298 3.44002C26.3952 -0.275669 21.1068 -0.217758 20.1539 3.5197C19.5072 6.05581 16.5343 7.17488 14.3758 5.69468C11.1949 3.51332 7.18099 6.95695 8.85336 10.4326C9.98817 12.791 8.43011 15.5592 5.82517 15.8128C1.98627 16.1864 1.12499 21.4045 4.64018 22.992C7.02547 24.0692 7.6113 27.1913 5.77877 29.0599C3.68634 31.1936 4.83263 34.4061 7.18217 35.2594L0.789791 44.2207C-0.122383 45.6229 0.987458 47.4587 2.65296 47.3026L6.92445 46.9021C7.40719 46.8569 7.85285 47.1644 7.98179 47.6318L8.90664 50.9844C9.37686 52.689 11.6654 52.9896 12.5599 51.4643L18.3822 43.2907C19.4077 43.2028 20.4146 42.6892 21.1227 41.6513C22.5978 39.4893 25.7741 39.4545 27.2962 41.5837C28.1377 42.7609 29.3601 43.2341 30.539 43.1634L37.1396 50.6738C38.4194 51.8615 40.5 50.9538 40.5 49.2078V45.1885C40.5 44.6484 40.9289 44.2059 41.4688 44.189L45.3373 44.0681C47.052 44.0145 47.9079 41.9687 46.7422 40.7101L41.7113 34.5768C43.5964 33.3895 44.2998 30.5519 42.3607 28.6593C40.4877 26.8312 41.005 23.6971 43.3661 22.5679C46.8457 20.9038 45.8704 15.7059 42.0242 15.4164C39.4143 15.2199 37.796 12.4865 38.8789 10.1038C40.4748 6.59236 36.3865 3.23746 33.2541 5.48795C31.1285 7.01506 28.1318 5.96136 27.4298 3.44002ZM2.46628 45.3113L9.67209 35.2737C12.125 34.713 14.456 36.6926 14.2583 39.2376C14.1299 40.8915 14.9795 42.1585 16.1626 42.8121L10.8346 50.4526L9.90977 47.1C9.52296 45.6978 8.18599 44.7751 6.73777 44.9109L2.46628 45.3113ZM38.5 49.2078L32.4804 42.5112C33.5411 41.8058 34.2611 40.5751 34.106 39.0203C33.8463 36.416 36.2572 34.3476 38.7917 35.0003C39.0795 35.0744 39.3605 35.1154 39.6328 35.1268L45.2748 42.0691L41.4063 42.19C39.7867 42.2406 38.5 43.5681 38.5 45.1885V49.2078ZM27.0001 22.0001C27.0001 23.6569 25.6569 25.0001 24.0001 25.0001C22.3432 25.0001 21.0001 23.6569 21.0001 22.0001C21.0001 20.3432 22.3432 19.0001 24.0001 19.0001C25.6569 19.0001 27.0001 20.3432 27.0001 22.0001ZM29.0001 22.0001C29.0001 24.7615 26.7615 27.0001 24.0001 27.0001C21.2386 27.0001 19.0001 24.7615 19.0001 22.0001C19.0001 19.2386 21.2386 17.0001 24.0001 17.0001C26.7615 17.0001 29.0001 19.2386 29.0001 22.0001Z" fill="#C3D62F"/>
</svg>
