<svg width="174" height="85" viewBox="0 0 174 85" fill="none" xmlns="http://www.w3.org/2000/svg">
<path fill-rule="evenodd" clip-rule="evenodd" d="M44.2647 51.7869C46.4557 51.7869 48.5188 49.9125 50.448 46.1757C52.3894 42.439 53.3571 38.9943 53.3571 35.8358C53.3571 34.6003 53.0893 33.6448 52.5355 32.951C51.9878 32.2633 51.2575 31.9164 50.3324 31.9164C48.1415 31.9164 46.0662 33.7787 44.1126 37.5094C42.1529 41.234 41.1792 44.6664 41.1792 47.8007C41.1792 48.9935 41.4713 49.9429 42.0556 50.6854C42.6276 51.4157 43.3701 51.7869 44.2647 51.7869ZM155.296 44.6421C160.865 43.0719 163.646 40.1628 163.646 35.9331C163.646 33.8335 162.885 32.7928 161.37 32.7928C159.934 32.7928 158.558 33.8883 157.25 36.0792C155.941 38.2701 155.296 41.1305 155.296 44.6421ZM147.877 50.7706C144.901 53.5092 142.29 55.5359 140.045 56.8321C137.793 58.1345 135.657 58.7857 133.612 58.7857C131.269 58.7857 129.382 57.8789 127.946 56.0592C126.905 54.7447 126.218 52.8276 125.925 50.8619C120.795 56.1992 117.156 58.7857 114.606 58.7857C113.2 58.7857 112.025 58.0676 111.058 56.6313C110.09 55.195 109.609 53.3997 109.609 51.2331C106.846 53.9718 104.807 55.5359 102.793 56.8321C100.772 58.1345 98.8554 58.7857 97.0357 58.7857C95.149 58.7857 93.6276 57.9824 92.453 56.394C91.2784 54.7995 90.6881 52.6998 90.6881 50.095C90.6881 47.8067 93.5789 34.7099 94.6439 30.9427L96.068 25.9157L93.4997 26.0496L94.5526 20.8644L97.6869 20.7305L100.785 10.4818L109.609 8.67433L106.183 20.1098L110.808 19.8542L109.719 24.9055L104.631 25.3071L102.428 32.7502C101.673 35.3063 99.0197 47.4538 99.0197 48.9935C99.0197 50.0281 99.2875 50.874 99.7926 51.5313C100.304 52.1886 100.973 52.5172 101.777 52.5172C102.896 52.5172 104.004 52.1582 105.1 51.4522C106.201 50.7402 107.917 49.2491 110.047 46.9912C111.155 40.0655 114.082 28.2771 116.578 21.7286L124.94 19.988H125.335L122.049 30.2671C120.692 34.5151 117.746 47.6546 117.746 49.4743C117.746 50.2046 117.898 50.7888 118.215 51.2392C118.537 51.6896 118.933 51.9147 119.414 51.9147C120.278 51.9147 121.13 51.6104 121.994 50.9958C122.858 50.3811 124.015 49.31 125.877 47.2651C126.455 41.2522 129.248 27.8024 131.025 22.0451C133.009 15.6001 135.438 9.65417 138.274 4.21945L146.648 1.13389C146.904 1.03652 147.111 1 147.244 1C147.871 1 148.401 1.46253 148.802 2.39367C149.204 3.32482 149.411 4.5846 149.411 6.16694C149.411 10.634 148.376 14.9672 146.325 19.1543C144.275 23.3414 141.049 27.8206 136.673 32.5676C136.503 34.8559 134.141 46.5287 134.141 47.3868C134.141 49.2978 134.494 50.8071 135.194 51.9208C135.894 53.0406 136.819 53.6066 137.988 53.6066C139.168 53.6066 140.422 53.1806 141.761 52.3286C143.094 51.4765 144.987 49.6995 147.725 47.0095C148.03 42.9258 149.642 39.1221 152.527 35.7506C155.746 31.9895 159.319 30.1028 163.244 30.1028C165.277 30.1028 166.914 30.6323 168.137 31.6852C169.355 32.7319 169.975 34.1074 169.975 35.8297C169.975 40.3637 165.174 44.0456 155.552 46.8756C156.428 51.1844 158.716 53.3388 162.411 53.3388C163.847 53.3388 165.228 52.9493 166.543 52.1703C167.845 51.3974 169.829 49.6812 172.471 47.0095V50.7828C169.689 53.5214 167.194 55.5419 164.973 56.8443C162.763 58.1406 160.317 58.7979 157.645 58.7979C154.669 58.7979 152.265 57.8424 150.44 55.9375C149.125 54.556 148.249 52.7485 147.877 50.7706ZM137.556 27.8024C140.337 24.7046 142.595 21.2357 144.323 17.3833C146.046 13.5431 146.916 10.2323 146.916 7.46932C146.916 6.64773 146.794 5.99653 146.557 5.50357C146.313 5.01062 146.009 4.76109 145.638 4.76109C144.828 4.76109 143.654 6.7877 142.114 10.8227C140.568 14.8759 139.047 20.5297 137.556 27.8024ZM127.709 7.12851C126.552 7.98054 125.372 8.40655 124.197 8.40655C123.15 8.40655 121.763 7.86491 120.034 6.7877C119.328 9.20381 118.342 11.3704 117.07 13.2996C118.403 14.4316 120.01 15.0037 121.897 15.0037C125.767 15.0098 127.709 12.3807 127.709 7.12851ZM78.4371 30.7053C79.9525 30.3097 81.4801 29.9872 83.0198 29.7377C84.5474 29.4821 85.4664 29.3543 85.7828 29.3543C85.9958 29.3543 86.1115 29.4455 86.1115 29.6099C86.1115 29.9446 86.0202 30.2854 85.8437 30.6323C85.4846 31.6426 85.302 32.6102 85.302 33.517C85.3264 34.6612 85.9897 36.2131 87.2982 38.1849C88.6128 40.1628 89.2761 41.9886 89.2761 43.6866C89.2761 47.0338 87.6694 50.2654 84.45 53.3753C81.2366 56.4852 77.9077 58.0432 74.4569 58.0432C72.9659 58.0432 71.6087 57.6477 70.3733 56.8626C69.15 56.0775 68.5353 55.2376 68.5353 54.3369C68.5353 53.8075 69.1439 52.8094 70.3672 51.3487C71.5783 49.8759 72.4547 49.1456 72.9841 49.1456C73.6779 49.1456 74.3109 50.0464 74.8586 51.8417C75.4063 53.637 76.3497 54.5378 77.6886 54.5378C79.0335 54.5378 80.2933 53.9231 81.4618 52.6755C82.6425 51.4279 83.2267 50.095 83.2267 48.6588C83.2511 47.2773 82.5086 45.4393 81.0175 43.1449C79.5143 40.8445 78.5284 38.9274 78.0415 37.3633C74.0066 43.8266 67.1721 52.3286 60.788 56.5339C59.2726 57.5442 57.8363 58.0493 56.4548 58.0493C52.9858 58.0493 51.3487 54.982 51.5496 48.8535C49.3586 51.9938 47.3381 54.3065 45.488 55.8036C43.6379 57.2947 41.7269 58.0493 39.749 58.0493C37.8319 58.0493 36.1887 57.1425 34.8437 55.335C33.7909 53.917 33.1519 52.2555 32.9206 50.3446C27.8571 55.688 23.8222 58.0493 20.2071 58.0493C18.7465 58.0493 17.5598 57.532 16.659 56.4974C15.7583 55.4628 15.3141 54.0752 15.3141 52.3468C15.3141 49.9916 16.2817 46.3887 18.211 41.5261C19.2456 38.9091 19.7629 37.2477 19.7629 36.5417C19.7629 35.8358 19.4829 35.4889 18.9352 35.4889C18.6309 35.4889 18.2292 35.6471 17.7241 35.9514C17.2615 36.2679 16.726 36.6939 16.1052 37.2416C15.5575 37.7467 14.9489 38.3614 14.2673 39.0795C13.683 39.6942 13.044 40.4063 12.3563 41.1914L10.5184 43.3336C9.70894 44.3317 9.2038 45.3785 9.00297 46.4739C8.68042 48.3362 8.46132 50.0524 8.35178 51.6165C8.28483 52.785 8.24832 54.3552 8.24832 56.3331L1 58.0493C1.95549 45.6949 2.43018 42.1894 5.82612 30.7723L13.8413 29.2204C12.1555 33.7118 11.0478 37.2659 10.5184 39.8707C14.109 35.8662 16.9755 33.0788 19.0812 31.5391C21.2052 29.9872 23.0797 29.2143 24.729 29.2143C25.8427 29.2143 26.7738 29.6403 27.5224 30.4802C28.2649 31.32 28.6361 32.379 28.6361 33.6448C28.6361 35.7445 27.6928 39.2256 25.794 44.0822C24.4855 47.4294 23.8343 49.596 23.8343 50.5941C23.8343 51.9269 24.376 52.5903 25.4532 52.5903C27.0599 52.5903 29.3725 50.7888 32.951 46.5713C33.2553 44.0274 34.1134 41.5809 35.5315 39.2317C37.339 36.2435 39.6638 33.8335 42.4816 31.9895C45.3115 30.1393 47.8128 29.2143 49.9794 29.2143C52.7181 29.2143 54.6351 30.4741 55.7245 32.9997L62.4799 29.2143H64.33L61.4087 38.9031C59.8934 43.7718 59.1387 47.1069 59.1387 48.9144C59.1387 50.8254 59.8142 51.7748 61.147 51.7748C61.9991 51.7748 62.9424 51.3122 63.9648 50.4054C64.9933 49.4925 66.454 48.1171 68.3223 46.2487C73.7084 40.5462 76.5687 35.8601 78.4371 30.7053Z" fill="white"/>
<path fill-rule="evenodd" clip-rule="evenodd" d="M44.2647 51.7869C46.4557 51.7869 48.5188 49.9125 50.448 46.1757C52.3894 42.439 53.3571 38.9943 53.3571 35.8358C53.3571 34.6003 53.0893 33.6448 52.5355 32.951C51.9878 32.2633 51.2575 31.9164 50.3324 31.9164C48.1415 31.9164 46.0662 33.7787 44.1126 37.5094C42.1529 41.234 41.1792 44.6664 41.1792 47.8007C41.1792 48.9935 41.4713 49.9429 42.0556 50.6854C42.6276 51.4157 43.3701 51.7869 44.2647 51.7869ZM155.296 44.6421C160.865 43.0719 163.646 40.1628 163.646 35.9331C163.646 33.8335 162.885 32.7928 161.37 32.7928C159.934 32.7928 158.558 33.8883 157.25 36.0792C155.941 38.2701 155.296 41.1305 155.296 44.6421ZM147.877 50.7706C144.901 53.5092 142.29 55.5359 140.045 56.8321C137.793 58.1345 135.657 58.7857 133.612 58.7857C131.269 58.7857 129.382 57.8789 127.946 56.0592C126.905 54.7447 126.218 52.8276 125.925 50.8619C120.795 56.1992 117.156 58.7857 114.606 58.7857C113.2 58.7857 112.025 58.0676 111.058 56.6313C110.09 55.195 109.609 53.3997 109.609 51.2331C106.846 53.9718 104.807 55.5359 102.793 56.8321C100.772 58.1345 98.8554 58.7857 97.0357 58.7857C95.149 58.7857 93.6276 57.9824 92.453 56.394C91.2784 54.7995 90.6881 52.6998 90.6881 50.095C90.6881 47.8067 93.5789 34.7099 94.6439 30.9427L96.068 25.9157L93.4997 26.0496L94.5526 20.8644L97.6869 20.7305L100.785 10.4818L109.609 8.67433L106.183 20.1098L110.808 19.8542L109.719 24.9055L104.631 25.3071L102.428 32.7502C101.673 35.3063 99.0197 47.4538 99.0197 48.9935C99.0197 50.0281 99.2875 50.874 99.7926 51.5313C100.304 52.1886 100.973 52.5172 101.777 52.5172C102.896 52.5172 104.004 52.1582 105.1 51.4522C106.201 50.7402 107.917 49.2491 110.047 46.9912C111.155 40.0655 114.082 28.2771 116.578 21.7286L124.94 19.988H125.335L122.049 30.2671C120.692 34.5151 117.746 47.6546 117.746 49.4743C117.746 50.2046 117.898 50.7888 118.215 51.2392C118.537 51.6896 118.933 51.9147 119.414 51.9147C120.278 51.9147 121.13 51.6104 121.994 50.9958C122.858 50.3811 124.015 49.31 125.877 47.2651C126.455 41.2522 129.248 27.8024 131.025 22.0451C133.009 15.6001 135.438 9.65417 138.274 4.21945L146.648 1.13389C146.904 1.03652 147.111 1 147.244 1C147.871 1 148.401 1.46253 148.802 2.39367C149.204 3.32482 149.411 4.5846 149.411 6.16694C149.411 10.634 148.376 14.9672 146.325 19.1543C144.275 23.3414 141.049 27.8206 136.673 32.5676C136.503 34.8559 134.141 46.5287 134.141 47.3868C134.141 49.2978 134.494 50.8071 135.194 51.9208C135.894 53.0406 136.819 53.6066 137.988 53.6066C139.168 53.6066 140.422 53.1806 141.761 52.3286C143.094 51.4765 144.987 49.6995 147.725 47.0095C148.03 42.9258 149.642 39.1221 152.527 35.7506C155.746 31.9895 159.319 30.1028 163.244 30.1028C165.277 30.1028 166.914 30.6323 168.137 31.6852C169.355 32.7319 169.975 34.1074 169.975 35.8297C169.975 40.3637 165.174 44.0456 155.552 46.8756C156.428 51.1844 158.716 53.3388 162.411 53.3388C163.847 53.3388 165.228 52.9493 166.543 52.1703C167.845 51.3974 169.829 49.6812 172.471 47.0095V50.7828C169.689 53.5214 167.194 55.5419 164.973 56.8443C162.763 58.1406 160.317 58.7979 157.645 58.7979C154.669 58.7979 152.265 57.8424 150.44 55.9375C149.125 54.556 148.249 52.7485 147.877 50.7706ZM137.556 27.8024C140.337 24.7046 142.595 21.2357 144.323 17.3833C146.046 13.5431 146.916 10.2323 146.916 7.46932C146.916 6.64773 146.794 5.99653 146.557 5.50357C146.313 5.01062 146.009 4.76109 145.638 4.76109C144.828 4.76109 143.654 6.7877 142.114 10.8227C140.568 14.8759 139.047 20.5297 137.556 27.8024ZM127.709 7.12851C127.709 12.3807 125.767 15.0098 121.897 15.0098C120.01 15.0098 118.403 14.4377 117.07 13.3057C118.336 11.3765 119.328 9.20989 120.034 6.79379C121.763 7.87099 123.156 8.41264 124.197 8.41264C125.378 8.40655 126.552 7.98054 127.709 7.12851ZM78.4371 30.7053C79.9525 30.3097 81.4801 29.9872 83.0198 29.7377C84.5474 29.4821 85.4664 29.3543 85.7828 29.3543C85.9958 29.3543 86.1115 29.4455 86.1115 29.6099C86.1115 29.9446 86.0202 30.2854 85.8437 30.6323C85.4846 31.6426 85.302 32.6102 85.302 33.517C85.3264 34.6612 85.9897 36.2131 87.2982 38.1849C88.6128 40.1628 89.2761 41.9886 89.2761 43.6866C89.2761 47.0338 87.6694 50.2654 84.45 53.3753C81.2366 56.4852 77.9077 58.0432 74.4569 58.0432C72.9659 58.0432 71.6087 57.6477 70.3733 56.8626C69.15 56.0775 68.5353 55.2376 68.5353 54.3369C68.5353 53.8075 69.1439 52.8094 70.3672 51.3487C71.5783 49.8759 72.4547 49.1456 72.9841 49.1456C73.6779 49.1456 74.3109 50.0464 74.8586 51.8417C75.4063 53.637 76.3497 54.5378 77.6886 54.5378C79.0335 54.5378 80.2933 53.9231 81.4618 52.6755C82.6425 51.4279 83.2267 50.095 83.2267 48.6588C83.2511 47.2773 82.5086 45.4393 81.0175 43.1449C79.5143 40.8445 78.5284 38.9274 78.0415 37.3633C74.0066 43.8266 67.1721 52.3286 60.788 56.5339C59.2726 57.5442 57.8363 58.0493 56.4548 58.0493C52.9858 58.0493 51.3487 54.982 51.5496 48.8535C49.3586 51.9938 47.3381 54.3065 45.488 55.8036C43.6379 57.2947 41.7269 58.0493 39.749 58.0493C37.8319 58.0493 36.1887 57.1425 34.8437 55.335C33.7909 53.917 33.1519 52.2555 32.9206 50.3446C27.8571 55.688 23.8222 58.0493 20.2071 58.0493C18.7465 58.0493 17.5598 57.532 16.659 56.4974C15.7583 55.4628 15.3141 54.0752 15.3141 52.3468C15.3141 49.9916 16.2817 46.3887 18.211 41.5261C19.2456 38.9091 19.7629 37.2477 19.7629 36.5417C19.7629 35.8358 19.4829 35.4889 18.9352 35.4889C18.6309 35.4889 18.2292 35.6471 17.7241 35.9514C17.2615 36.2679 16.726 36.6939 16.1052 37.2416C15.5575 37.7467 14.9489 38.3614 14.2673 39.0795C13.683 39.6942 13.044 40.4063 12.3563 41.1914L10.5184 43.3336C9.70894 44.3317 9.2038 45.3785 9.00297 46.4739C8.68042 48.3362 8.46132 50.0524 8.35178 51.6165C8.28483 52.785 8.24832 54.3552 8.24832 56.3331L1 58.0493C1.95549 45.6949 2.43018 42.1894 5.82612 30.7723L13.8413 29.2204C12.1555 33.7118 11.0478 37.2659 10.5184 39.8707C14.109 35.8662 16.9755 33.0788 19.0812 31.5391C21.2052 29.9872 23.0797 29.2143 24.729 29.2143C25.8427 29.2143 26.7738 29.6403 27.5224 30.4802C28.2649 31.32 28.6361 32.379 28.6361 33.6448C28.6361 35.7445 27.6928 39.2256 25.794 44.0822C24.4855 47.4294 23.8343 49.596 23.8343 50.5941C23.8343 51.9269 24.376 52.5903 25.4532 52.5903C27.0599 52.5903 29.3725 50.7888 32.951 46.5713C33.2553 44.0274 34.1134 41.5809 35.5315 39.2317C37.339 36.2435 39.6638 33.8335 42.4816 31.9895C45.3115 30.1393 47.8128 29.2143 49.9794 29.2143C52.7181 29.2143 54.6351 30.4741 55.7245 32.9997L62.4799 29.2143H64.33L61.4087 38.9031C59.8934 43.7718 59.1387 47.1069 59.1387 48.9144C59.1387 50.8254 59.8142 51.7748 61.147 51.7748C61.9991 51.7748 62.9424 51.3122 63.9648 50.4054C64.9933 49.4925 66.454 48.1171 68.3223 46.2487C73.7084 40.5462 76.5687 35.8601 78.4371 30.7053Z" fill="white" stroke="black" stroke-width="0.216" stroke-miterlimit="22.9256"/>
<path fill-rule="evenodd" clip-rule="evenodd" d="M165.94 60.9462V63.5875H170.809V67.2816H165.94V70.7141C165.94 71.9009 166.372 72.7711 167.243 73.3189C168.107 73.8666 169.294 74.1405 170.809 74.1405H173V77.8346H170.809C167.803 77.8346 165.557 77.2443 164.084 76.0636C162.763 74.889 162.106 73.0754 162.106 70.6289V60.9462H165.94ZM155.034 63.5875H159.994L154.006 69.6004L160.5 77.8285H155.826L150.817 71.8522L150.391 72.3086V77.8224H146.697V58.4632H150.391V68.1215L155.034 63.5875ZM136.941 67.2756C135.243 67.2756 134.001 67.5738 133.21 68.1641C132.419 68.7484 132.024 69.643 132.024 70.8237C132.024 71.9739 132.431 72.8198 133.253 73.3432C134.075 73.8727 135.304 74.1344 136.947 74.1344H141.603V77.8285H136.935C133.898 77.8285 131.646 77.2443 130.21 76.0697C128.889 74.9012 128.232 73.1059 128.232 70.6898C128.232 68.4136 128.853 66.6609 130.106 65.4254C131.445 64.1961 133.715 63.5814 136.935 63.5814H137.014C140.16 63.5814 142.339 64.0196 143.556 64.8899C144.719 65.7602 145.297 66.9834 145.297 68.5536C145.297 71.2192 143.69 72.552 140.477 72.552H134.117V68.8579H140.081C140.574 68.8518 140.927 68.8153 141.14 68.7484C141.372 68.6875 141.481 68.5658 141.481 68.3954C141.481 67.6529 139.966 67.2756 136.941 67.2756ZM122.548 61.5974C122.554 61.3296 122.603 61.1044 122.694 60.9219C122.925 60.3924 123.321 60.0455 123.881 59.8812C124.088 59.8203 124.313 59.7838 124.55 59.7838C124.574 59.7838 124.599 59.7838 124.617 59.7838C124.885 59.7899 125.11 59.8264 125.286 59.8812C125.816 60.0455 126.163 60.3924 126.333 60.9219C126.4 61.1349 126.437 61.3601 126.437 61.5974C126.437 61.5974 126.437 61.6218 126.437 61.6765C126.431 61.9443 126.394 62.1634 126.333 62.346C126.163 62.8754 125.816 63.2223 125.286 63.3927C125.086 63.4536 124.86 63.484 124.629 63.484C124.629 63.484 124.605 63.484 124.55 63.484C124.282 63.478 124.063 63.4475 123.881 63.3927C123.321 63.2284 122.919 62.8815 122.694 62.346C122.596 62.1391 122.548 61.9139 122.548 61.6765C122.548 61.6704 122.548 61.6461 122.548 61.5974ZM116.444 84.3222L116.456 80.6281H116.967C120.692 80.6281 122.548 79.0457 122.548 75.875V65.4011H126.437V75.875C126.437 81.5044 123.272 84.3161 116.943 84.3161H116.444V84.3222ZM111.478 74.1405C114.374 74.1344 115.829 72.9963 115.829 70.7384V70.6958V70.6715C115.829 68.4197 114.374 67.2877 111.478 67.2816C108.575 67.2816 107.126 68.4136 107.126 70.6715C107.126 70.6898 107.126 70.7019 107.126 70.7141C107.144 73.0024 108.568 74.1466 111.411 74.1466C111.435 74.1405 111.459 74.1405 111.478 74.1405ZM111.423 77.8285C111.459 77.8285 111.478 77.8285 111.478 77.8285C116.93 77.8103 119.657 75.4368 119.657 70.708C119.657 65.9549 116.93 63.5875 111.478 63.5875C106.025 63.5875 103.298 65.961 103.298 70.708C103.298 75.4611 106.006 77.8285 111.423 77.8285ZM94.8326 70.8784C94.8326 70.8784 94.8326 73.1972 94.8326 77.8285H91.0228V70.708C91.0228 65.9549 93.7493 63.5875 99.2022 63.5875H101.917V67.2816H99.1961C96.2871 67.2756 94.8326 68.4806 94.8326 70.8784ZM77.0434 84.3222H73.1119V63.5875H81.4436C86.7809 63.5875 89.4648 65.9488 89.4891 70.6837C89.4709 75.4489 86.8418 77.8346 81.6018 77.8346H79.4413V74.1405H81.6018C84.3039 74.1405 85.655 72.9963 85.655 70.708C85.655 68.5597 84.2492 67.4886 81.4436 67.4886H77.0374V84.3222H77.0434Z" fill="#C3D62F" stroke="black" stroke-width="0.216" stroke-miterlimit="22.9256"/>
</svg>
