<svg width="20" height="33" viewBox="0 0 20 33" fill="none" xmlns="http://www.w3.org/2000/svg">
<path fill-rule="evenodd" clip-rule="evenodd" d="M18 9.58333C18 10.3759 17.5895 11.6275 16.6877 13.2564C15.8219 14.8204 14.6424 16.4891 13.4253 18.0434C12.2142 19.59 10.9981 20.9825 10.0823 21.9905L10 22.0809L9.91775 21.9905C9.00187 20.9825 7.7858 19.59 6.57466 18.0434C5.35756 16.4891 4.17813 14.8204 3.31225 13.2564C2.41047 11.6275 2 10.3759 2 9.58333C2 5.47454 5.50065 2 10 2C14.4994 2 18 5.47454 18 9.58333ZM20 9.58333C20 13.6442 14.1131 20.5492 11.3729 23.5434C10.5417 24.4516 10 25 10 25C10 25 9.45833 24.4516 8.62712 23.5434C5.8869 20.5492 0 13.6442 0 9.58333C0 4.29061 4.47715 0 10 0C15.5228 0 20 4.29061 20 9.58333ZM4 27C3.44772 27 3 27.4477 3 28C3 28.5523 3.44772 29 4 29H12C12.5523 29 13 28.5523 13 28C13 27.4477 12.5523 27 12 27H4ZM8.38776 31.125C8.38776 30.5727 8.83547 30.125 9.38776 30.125H17.3754C17.9277 30.125 18.3754 30.5727 18.3754 31.125C18.3754 31.6773 17.9277 32.125 17.3754 32.125H9.38776C8.83547 32.125 8.38776 31.6773 8.38776 31.125ZM10 12C11.1046 12 12 11.1046 12 10C12 8.89543 11.1046 8 10 8C8.89543 8 8 8.89543 8 10C8 11.1046 8.89543 12 10 12Z" fill="#2C3447"/>
</svg>
