<svg width="47" height="30" viewBox="0 0 47 30" fill="none" xmlns="http://www.w3.org/2000/svg">
<path fill-rule="evenodd" clip-rule="evenodd" d="M4 28H43C44.1046 28 45 27.1046 45 26V11H2V26C2 27.1046 2.89543 28 4 28ZM0 11V9V4C0 1.79086 1.79086 0 4 0H43C45.2091 0 47 1.79086 47 4V9V11V26C47 28.2091 45.2091 30 43 30H4C1.79086 30 0 28.2091 0 26V11ZM45 9V4C45 2.89543 44.1046 2 43 2H4C2.89543 2 2 2.89543 2 4V9H45ZM41 20H35C34.4477 20 34 20.4477 34 21C34 21.5523 34.4477 22 35 22H41C41.5523 22 42 21.5523 42 21C42 20.4477 41.5523 20 41 20ZM32 21C32 22.6569 33.3431 24 35 24H41C42.6569 24 44 22.6569 44 21C44 19.3431 42.6569 18 41 18H35C33.3431 18 32 19.3431 32 21ZM10 20.5C10 21.3284 9.32843 22 8.5 22C7.67157 22 7 21.3284 7 20.5C7 19.6716 7.67157 19 8.5 19C9.32843 19 10 19.6716 10 20.5ZM8.5 24C6.567 24 5 22.433 5 20.5C5 18.567 6.567 17 8.5 17C10.433 17 12 18.567 12 20.5C12 22.433 10.433 24 8.5 24Z" fill="#C3D62F"/>
</svg>
