<svg width="19" height="30" viewBox="0 0 19 30" fill="none" xmlns="http://www.w3.org/2000/svg">
<path fill-rule="evenodd" clip-rule="evenodd" d="M9.5 22L8.79272 22.7069C8.79288 22.7071 8.79272 22.7069 9.5 22ZM10.2073 22.7069L10.208 22.7062L10.2149 22.6993L10.2346 22.6794L10.3088 22.6042C10.3732 22.5387 10.4668 22.4428 10.5853 22.3198C10.8225 22.0737 11.1599 21.7184 11.5643 21.2786C12.372 20.4 13.4516 19.1789 14.5338 17.8133C15.6128 16.4515 16.7111 14.9251 17.5443 13.4378C18.359 11.9835 19 10.4298 19 9.05C19 4.00127 14.6948 0 9.5 0C4.30524 0 0 4.00127 0 9.05C0 10.4298 0.640967 11.9835 1.4557 13.4378C2.2889 14.9251 3.38715 16.4515 4.46623 17.8133C5.54835 19.1789 6.62796 20.4 7.43573 21.2786C7.8401 21.7184 8.17754 22.0737 8.41465 22.3198C8.53323 22.4428 8.6268 22.5387 8.69118 22.6042L8.76538 22.6794L8.7851 22.6993L8.79272 22.7069L9.5 23.4146L10.2073 22.7069ZM10.2073 22.7069L9.5 22C9.5 22 9.76237 21.7375 10.1949 21.2806C12.2244 19.1371 18 12.7148 18 9.05C18 4.60411 14.1944 1 9.5 1C4.80558 1 1 4.60411 1 9.05C1 12.7148 6.77564 19.1371 8.80508 21.2806C9.23763 21.7375 9.5 22 9.5 22C10.2073 22.7069 10.2071 22.7071 10.2073 22.7069ZM4 24C3.44772 24 3 24.4477 3 25C3 25.5523 3.44772 26 4 26H12C12.5523 26 13 25.5523 13 25C13 24.4477 12.5523 24 12 24H4ZM8.38776 28.125C8.38776 27.5727 8.83547 27.125 9.38776 27.125H17.3754C17.9277 27.125 18.3754 27.5727 18.3754 28.125C18.3754 28.6773 17.9277 29.125 17.3754 29.125H9.38776C8.83547 29.125 8.38776 28.6773 8.38776 28.125ZM12 10C13.1046 10 14 9.10457 14 8C14 6.89543 13.1046 6 12 6C10.8954 6 10 6.89543 10 8C10 9.10457 10.8954 10 12 10Z" fill="#C3D62F"/>
</svg>
