<svg width="48" height="41" viewBox="0 0 48 41" fill="none" xmlns="http://www.w3.org/2000/svg">
<path fill-rule="evenodd" clip-rule="evenodd" d="M14.8846 2.42309C15.3944 2.21068 15.6355 1.6252 15.4231 1.1154C15.2107 0.605599 14.6252 0.364522 14.1154 0.57694C10.6628 2.0155 8.88107 5.56183 8.81271 8.98002C8.74399 12.4163 10.4046 15.9963 14.141 17.4334C14.6565 17.6316 15.2351 17.3745 15.4333 16.859C15.6316 16.3435 15.3745 15.7649 14.859 15.5667C12.0955 14.5038 10.756 11.8337 10.8123 9.02001C10.8689 6.1882 12.3372 3.48453 14.8846 2.42309ZM33.0731 1.20635C33.2803 0.694415 33.8633 0.4474 34.3752 0.654626C37.6717 1.989 40 5.22142 40 9.00005C40 12.7787 37.6717 16.0111 34.3752 17.3455C33.8633 17.5527 33.2803 17.3057 33.0731 16.7937C32.8659 16.2818 33.1129 15.6988 33.6248 15.4916C36.192 14.4524 38 11.9362 38 9.00005C38 6.06392 36.192 3.54768 33.6248 2.5085C33.1129 2.30128 32.8659 1.71828 33.0731 1.20635ZM24 4.00005C20.134 4.00005 17 7.13405 17 11C17 14.866 20.134 18 24 18C27.866 18 31 14.866 31 11C31 7.13405 27.866 4.00005 24 4.00005ZM15 11C15 6.02948 19.0295 2.00005 24 2.00005C28.9706 2.00005 33 6.02948 33 11C33 15.9706 28.9706 20 24 20C19.0295 20 15 15.9706 15 11ZM40.0316 25.0028C40.1693 24.468 40.7144 24.146 41.2493 24.2836C45.1308 25.2827 48 28.805 48 33V37C48 37.5523 47.5523 38 47 38C46.4477 38 46 37.5523 46 37V33C46 29.7397 43.7701 26.9976 40.7508 26.2205C40.2159 26.0829 39.8939 25.5377 40.0316 25.0028ZM27.0376 26C28.8696 26 30.2956 26 31.4453 26.0785C32.6119 26.1581 33.5669 26.3218 34.4442 26.6851C36.6494 27.5986 38.4015 29.3506 39.3149 31.5559C39.6783 32.4331 39.842 33.3882 39.9216 34.5547C40 35.7044 40 37.1304 40 38.9623V38.9623V38.9624V38.9624V38.9625V39C40 39.5523 39.5523 40 39 40C38.4477 40 38 39.5523 38 39C38 37.1226 37.9995 35.7646 37.9262 34.6909C37.8536 33.6261 37.7128 32.9142 37.4672 32.3213C36.7567 30.6061 35.394 29.2433 33.6788 28.5329C33.0859 28.2873 32.3739 28.1465 31.3092 28.0738C30.7629 28.0366 30.1431 28.0181 29.4187 28.009L25 32.6285V41H23V32.2184L18.6073 28.0087C17.8717 28.0177 17.2436 28.0361 16.6909 28.0738C15.6261 28.1465 14.9142 28.2873 14.3212 28.5329C12.606 29.2433 11.2433 30.6061 10.5329 32.3213C10.2873 32.9142 10.1465 33.6261 10.0738 34.6909C10.0006 35.7646 10 37.1226 10 39C10 39.5523 9.55232 40 9.00003 40C8.44775 40 8.00003 39.5523 8.00003 39V38.9625C8.00003 37.1305 8.00002 35.7045 8.07847 34.5547C8.15806 33.3882 8.32175 32.4331 8.68511 31.5559C9.59856 29.3506 11.3506 27.5986 13.5559 26.6851C14.4331 26.3218 15.3881 26.1581 16.5547 26.0785C17.7045 26 19.1305 26 20.9625 26H27.0376ZM21.4888 28H26.6597L24.1867 30.5855L21.4888 28ZM3.65897 25.7189C4.78162 24.9129 6.21889 24.5 8 24.5C8.55228 24.5 9 24.9477 9 25.5C9 26.0523 8.55228 26.5 8 26.5C6.5311 26.5 5.53087 26.8371 4.82539 27.3436C4.11822 27.8513 3.61104 28.5983 3.25304 29.5896C2.51288 31.6393 2.49999 34.4395 2.5 37.5C2.5 38.0523 2.05228 38.5 1.5 38.5C0.947713 38.5 0.499997 38.0523 0.499996 37.5L0.49999 37.3753C0.499803 34.4702 0.499601 31.326 1.37194 28.9104C1.82645 27.6517 2.53801 26.5237 3.65897 25.7189Z" fill="#C3D62F"/>
</svg>
