<svg width="28" height="29" viewBox="0 0 28 29" fill="none" xmlns="http://www.w3.org/2000/svg">
<g clip-path="url(#clip0_330_253)">
<path fill-rule="evenodd" clip-rule="evenodd" d="M28 14.5C28 22.232 21.732 28.5 14 28.5C6.26801 28.5 0 22.232 0 14.5C0 6.76801 6.26801 0.5 14 0.5C21.732 0.5 28 6.76801 28 14.5ZM14.5017 10.8354C13.14 11.4018 10.4185 12.5741 6.33721 14.3522C5.67447 14.6158 5.3273 14.8736 5.2957 15.1257C5.24228 15.5517 5.77583 15.7195 6.50238 15.948C6.60121 15.9791 6.70361 16.0113 6.80859 16.0454C7.52341 16.2777 8.48496 16.5496 8.98484 16.5604C9.43827 16.5702 9.94435 16.3832 10.5031 15.9996C14.3164 13.4255 16.2848 12.1244 16.4084 12.0964C16.4955 12.0766 16.6164 12.0517 16.6982 12.1245C16.7801 12.1972 16.772 12.335 16.7634 12.372C16.7105 12.5973 14.6161 14.5444 13.5323 15.5521C13.1944 15.8662 12.9548 16.089 12.9058 16.1399C12.796 16.2539 12.6841 16.3617 12.5766 16.4654C11.9126 17.1055 11.4146 17.5856 12.6042 18.3696C13.1759 18.7463 13.6334 19.0579 14.0898 19.3687C14.5882 19.7081 15.0853 20.0466 15.7285 20.4683C15.8924 20.5757 16.0489 20.6873 16.2014 20.7959C16.7814 21.2095 17.3025 21.581 17.9464 21.5217C18.3204 21.4873 18.7069 21.1355 18.9031 20.0864C19.3669 17.607 20.2786 12.2349 20.4893 10.0211C20.5077 9.82719 20.4845 9.57897 20.4658 9.47C20.4472 9.36104 20.4082 9.20579 20.2666 9.09087C20.0989 8.95476 19.8399 8.92606 19.7241 8.9281C19.1975 8.93737 18.3896 9.21829 14.5017 10.8354Z" fill="#C3D62F"/>
</g>
<defs>
<clipPath id="clip0_330_253">
<rect width="28" height="28" fill="white" transform="translate(0 0.5)"/>
</clipPath>
</defs>
</svg>
