<svg width="27" height="29" viewBox="0 0 27 29" fill="none" xmlns="http://www.w3.org/2000/svg">
<g clip-path="url(#clip0_330_256)">
<path d="M13.5 3.02109C17.107 3.02109 17.5342 3.0375 18.9527 3.10312C20.2711 3.16328 20.983 3.39297 21.4576 3.58438C22.0852 3.83594 22.5387 4.14219 23.008 4.62891C23.4826 5.12109 23.7727 5.58594 24.0152 6.23672C24.1998 6.72891 24.4213 7.47266 24.4793 8.83438C24.5426 10.3109 24.5584 10.7539 24.5584 14.4891C24.5584 18.2297 24.5426 18.6727 24.4793 20.1438C24.4213 21.5109 24.1998 22.2492 24.0152 22.7414C23.7727 23.3922 23.4773 23.8625 23.008 24.3492C22.5334 24.8414 22.0852 25.1422 21.4576 25.3938C20.983 25.5852 20.2658 25.8148 18.9527 25.875C17.5289 25.9406 17.1018 25.957 13.5 25.957C9.89297 25.957 9.46582 25.9406 8.04727 25.875C6.72891 25.8148 6.01699 25.5852 5.54238 25.3938C4.91484 25.1422 4.46133 24.8359 3.99199 24.3492C3.51738 23.857 3.22734 23.3922 2.98477 22.7414C2.8002 22.2492 2.57871 21.5055 2.5207 20.1438C2.45742 18.6672 2.4416 18.2242 2.4416 14.4891C2.4416 10.7484 2.45742 10.3055 2.5207 8.83438C2.57871 7.46719 2.8002 6.72891 2.98477 6.23672C3.22734 5.58594 3.52266 5.11563 3.99199 4.62891C4.4666 4.13672 4.91484 3.83594 5.54238 3.58438C6.01699 3.39297 6.73418 3.16328 8.04727 3.10312C9.46582 3.0375 9.89297 3.02109 13.5 3.02109ZM13.5 0.5C9.83496 0.5 9.37617 0.516406 7.93652 0.582031C6.50215 0.647656 5.51602 0.888281 4.66172 1.23281C3.77051 1.59375 3.01641 2.06953 2.26758 2.85156C1.51348 3.62813 1.05469 4.41016 0.706641 5.32891C0.374414 6.22031 0.142383 7.2375 0.0791016 8.725C0.0158203 10.2234 0 10.6992 0 14.5C0 18.3008 0.0158203 18.7766 0.0791016 20.2695C0.142383 21.757 0.374414 22.7797 0.706641 23.6656C1.05469 24.5898 1.51348 25.3719 2.26758 26.1484C3.01641 26.925 3.77051 27.4063 4.65645 27.7617C5.51602 28.1063 6.49688 28.3469 7.93125 28.4125C9.3709 28.4781 9.82969 28.4945 13.4947 28.4945C17.1598 28.4945 17.6186 28.4781 19.0582 28.4125C20.4926 28.3469 21.4787 28.1063 22.333 27.7617C23.2189 27.4063 23.973 26.925 24.7219 26.1484C25.4707 25.3719 25.9348 24.5898 26.2775 23.6711C26.6098 22.7797 26.8418 21.7625 26.9051 20.275C26.9684 18.782 26.9842 18.3063 26.9842 14.5055C26.9842 10.7047 26.9684 10.2289 26.9051 8.73594C26.8418 7.24844 26.6098 6.22578 26.2775 5.33984C25.9453 4.41016 25.4865 3.62813 24.7324 2.85156C23.9836 2.075 23.2295 1.59375 22.3436 1.23828C21.484 0.89375 20.5031 0.653125 19.0688 0.5875C17.6238 0.516406 17.165 0.5 13.5 0.5Z" fill="#C3D62F"/>
<path d="M13.5 7.30859C9.67148 7.30859 6.56543 10.5297 6.56543 14.5C6.56543 18.4703 9.67148 21.6914 13.5 21.6914C17.3285 21.6914 20.4346 18.4703 20.4346 14.5C20.4346 10.5297 17.3285 7.30859 13.5 7.30859ZM13.5 19.1648C11.0162 19.1648 9.00176 17.0758 9.00176 14.5C9.00176 11.9242 11.0162 9.83516 13.5 9.83516C15.9838 9.83516 17.9982 11.9242 17.9982 14.5C17.9982 17.0758 15.9838 19.1648 13.5 19.1648Z" fill="#C3D62F"/>
<path d="M22.3277 7.02412C22.3277 7.95381 21.6 8.70303 20.7088 8.70303C19.8123 8.70303 19.0898 7.94834 19.0898 7.02412C19.0898 6.09443 19.8176 5.34521 20.7088 5.34521C21.6 5.34521 22.3277 6.0999 22.3277 7.02412Z" fill="#C3D62F"/>
</g>
<defs>
<clipPath id="clip0_330_256">
<rect width="27" height="28" fill="white" transform="translate(0 0.5)"/>
</clipPath>
</defs>
</svg>
