<svg width="27" height="29" viewBox="0 0 27 29" fill="none" xmlns="http://www.w3.org/2000/svg">
<path d="M26.7311 8.9001C26.7311 8.9001 26.4674 6.96963 25.6553 6.12197C24.627 5.00635 23.4773 5.00088 22.95 4.93525C19.1742 4.65088 13.5053 4.65088 13.5053 4.65088H13.4947C13.4947 4.65088 7.82578 4.65088 4.05 4.93525C3.52266 5.00088 2.37305 5.00635 1.34473 6.12197C0.532617 6.96963 0.274219 8.9001 0.274219 8.9001C0.274219 8.9001 0 11.1696 0 13.4337V15.5556C0 17.8196 0.268945 20.0892 0.268945 20.0892C0.268945 20.0892 0.532617 22.0196 1.33945 22.8673C2.36777 23.9829 3.71777 23.9446 4.31895 24.0649C6.48105 24.2782 13.5 24.3438 13.5 24.3438C13.5 24.3438 19.1742 24.3329 22.95 24.054C23.4773 23.9884 24.627 23.9829 25.6553 22.8673C26.4674 22.0196 26.7311 20.0892 26.7311 20.0892C26.7311 20.0892 27 17.8251 27 15.5556V13.4337C27 11.1696 26.7311 8.9001 26.7311 8.9001ZM10.7104 18.1313V10.2618L18.0035 14.2103L10.7104 18.1313Z" fill="#C3D62F"/>
</svg>
