<svg width="32" height="32" viewBox="0 0 32 32" fill="none" xmlns="http://www.w3.org/2000/svg">
<path d="M16 32C24.8366 32 32 24.8366 32 16C32 7.16344 24.8366 0 16 0C7.16344 0 0 7.16344 0 16C0 24.8366 7.16344 32 16 32Z" fill="white"/>
<path fill-rule="evenodd" clip-rule="evenodd" d="M6.81853 14.9991C11.4829 12.9669 14.5931 11.6272 16.1494 10.9799C20.5927 9.13177 21.516 8.81072 22.1178 8.80012C22.2502 8.79779 22.5461 8.83059 22.7378 8.98614C22.8997 9.11749 22.9442 9.29492 22.9655 9.41944C22.9869 9.54397 23.0134 9.82765 22.9923 10.0493C22.7515 12.5793 21.7096 18.7189 21.1796 21.5525C20.9553 22.7515 20.5137 23.1535 20.0861 23.1929C19.157 23.2784 18.4514 22.5788 17.5515 21.9889C16.1433 21.0658 15.3477 20.4912 13.9808 19.5904C12.4011 18.5494 13.4252 17.9772 14.3254 17.0422C14.5611 16.7975 18.6549 13.0738 18.7341 12.736C18.7441 12.6938 18.7533 12.5363 18.6597 12.4531C18.5661 12.37 18.4281 12.3984 18.3284 12.421C18.1872 12.4531 15.9376 13.94 11.5795 16.8818C10.941 17.3203 10.3626 17.5339 9.84439 17.5227C9.27311 17.5104 8.17419 17.1997 7.35726 16.9342C6.35526 16.6084 5.55889 16.4362 5.62823 15.8831C5.66435 15.595 6.06112 15.3003 6.81853 14.9991Z" fill="#191B26"/>
</svg>
