<svg width="41" height="44" viewBox="0 0 41 44" fill="none" xmlns="http://www.w3.org/2000/svg">
<path fill-rule="evenodd" clip-rule="evenodd" d="M18 1.5C18 0.671574 18.6716 0 19.5 0C20.3284 0 21 0.671574 21 1.5V3.00598C32.0908 3.27146 41 12.3453 41 23.5C41 34.8218 31.8218 44 20.5 44C9.17816 44 0 34.8218 0 23.5C0 13.0245 7.85734 4.38408 18 3.15091V1.5ZM18 22.5V5.16748C8.96511 6.38798 2 14.1306 2 23.5C2 33.7173 10.2827 42 20.5 42C30.7173 42 39 33.7173 39 23.5C39 13.4499 30.9861 5.27159 21 5.00663V21.2774L34.2069 28.9025C34.9244 29.3167 35.1702 30.2341 34.756 30.9515C34.3418 31.6689 33.4244 31.9148 32.7069 31.5005L19.6941 23.9876C19.6305 23.9958 19.5658 24 19.5 24C18.6716 24 18 23.3284 18 22.5Z" fill="#C3D62F"/>
</svg>
