<svg width="26" height="25" viewBox="0 0 26 25" fill="none" xmlns="http://www.w3.org/2000/svg">
<path fill-rule="evenodd" clip-rule="evenodd" d="M13 25C20.1392 25 26 19.4432 26 12.5C26 5.55676 20.1392 0 13 0C5.86084 0 0 5.55676 0 12.5C0 19.4432 5.86084 25 13 25ZM25 12.5C25 18.8513 19.6274 24 13 24C6.37258 24 1 18.8513 1 12.5C1 6.14873 6.37258 1 13 1C12.4477 1 12 1.44772 12 2V12.9838C11.9995 13.0176 12.0007 13.0513 12.0035 13.0848C12.0145 13.2156 12.0507 13.3392 12.1071 13.4508C12.1863 13.608 12.308 13.7464 12.4679 13.8469L19.2311 18.0969C19.6987 18.3907 20.316 18.2499 20.6098 17.7822C20.9037 17.3146 20.7628 16.6973 20.2952 16.4035L14 12.4475V2C14 1.44772 13.5523 1 13 1C19.6274 1 25 6.14873 25 12.5Z" fill="#C3D62F"/>
</svg>
