<svg width="33" height="34" viewBox="0 0 33 34" fill="none" xmlns="http://www.w3.org/2000/svg">
<path d="M0.75 32.2866L2.91276 24.4363C1.57427 22.1406 0.870993 19.5288 0.870993 16.8644C0.878555 8.50972 7.70712 1.71309 16.101 1.71309C20.177 1.71309 23.9959 3.2937 26.8695 6.15386C29.7431 9.01401 31.3235 12.8225 31.3235 16.8719C31.3235 25.2266 24.4874 32.0232 16.101 32.0232H16.0935C13.5451 32.0232 11.042 31.3834 8.81875 30.1791L0.75 32.2866Z" fill="url(#paint0_linear_35_1128)"/>
<path d="M0.75 33.2131L2.97636 24.8907C1.59993 22.4479 0.877865 19.6815 0.885387 16.8534C0.885387 7.99165 7.9255 0.786621 16.5677 0.786621C20.7647 0.786621 24.7059 2.4588 27.6619 5.49493C30.6253 8.53106 32.2575 12.569 32.25 16.8612C32.25 25.7229 25.2099 32.928 16.5602 32.928H16.5526C13.9276 32.928 11.3478 32.2499 9.05372 30.9707L0.75 33.2131ZM9.45236 28.0655L9.92621 28.3584C11.9269 29.5759 14.221 30.2155 16.5602 30.2232H16.5677C23.7507 30.2232 29.6024 24.2357 29.6024 16.8689C29.6024 13.301 28.2485 9.94895 25.789 7.42141C23.3295 4.89387 20.0501 3.50681 16.5677 3.50681C9.38466 3.4991 3.53295 9.4866 3.53295 16.8534C3.53295 19.3733 4.2174 21.8315 5.52614 23.9583L5.83452 24.4669L4.51826 29.391L9.45236 28.0655Z" fill="url(#paint1_linear_35_1128)"/>
<path fill-rule="evenodd" clip-rule="evenodd" d="M12.3986 9.81135C12.0915 9.15503 11.7686 9.13995 11.4772 9.1324C11.241 9.12486 10.9653 9.12486 10.6897 9.12486C10.4141 9.12486 9.97307 9.22293 9.59505 9.61521C9.21704 10.0075 8.16176 10.958 8.16176 12.8968C8.16176 14.8281 9.63443 16.699 9.83919 16.963C10.0439 17.227 12.6821 21.3234 16.8481 22.9001C20.3132 24.2127 21.022 23.9487 21.7701 23.8808C22.5183 23.8129 24.1957 22.9302 24.5422 22.0099C24.8809 21.0895 24.8809 20.3049 24.7785 20.139C24.6761 19.973 24.4005 19.8749 23.991 19.6788C23.5814 19.4827 21.5654 18.5321 21.1874 18.3963C20.8094 18.2681 20.5337 18.2002 20.266 18.5925C19.9903 18.9848 19.2028 19.8674 18.9666 20.1314C18.7303 20.3955 18.4862 20.4256 18.0767 20.2295C17.6672 20.0334 16.3441 19.6185 14.7769 18.2756C13.5563 17.2346 12.7294 15.9446 12.4931 15.5523C12.2569 15.16 12.4695 14.9488 12.6743 14.7526C12.8554 14.5791 13.0838 14.2924 13.2885 14.0661C13.4933 13.8398 13.5642 13.6738 13.698 13.4098C13.8319 13.1458 13.7689 12.9194 13.6665 12.7233C13.5642 12.5347 12.7609 10.5884 12.3986 9.81135Z" fill="white"/>
<defs>
<linearGradient id="paint0_linear_35_1128" x1="16.4992" y1="33.2115" x2="16.4992" y2="0.785487" gradientUnits="userSpaceOnUse">
<stop stop-color="#3BB51D"/>
<stop offset="1" stop-color="#64D62F"/>
</linearGradient>
<linearGradient id="paint1_linear_35_1128" x1="16.5031" y1="33.21" x2="16.5031" y2="0.786621" gradientUnits="userSpaceOnUse">
<stop stop-color="#2D3548"/>
<stop offset="1" stop-color="#2D3548"/>
</linearGradient>
</defs>
</svg>
