<svg width="33" height="34" viewBox="0 0 33 34" fill="none" xmlns="http://www.w3.org/2000/svg">
<path d="M0.75 32.2868L2.91276 24.4364C1.57427 22.1407 0.870993 19.529 0.870993 16.8645C0.878555 8.50986 7.70712 1.71323 16.101 1.71323C20.177 1.71323 23.9959 3.29385 26.8695 6.154C29.7431 9.01415 31.3235 12.8227 31.3235 16.872C31.3235 25.2267 24.4874 32.0233 16.101 32.0233H16.0935C13.5451 32.0233 11.042 31.3836 8.81875 30.1793L0.75 32.2868Z" fill="url(#paint0_linear_48_296)"/>
<path d="M0.75 33.2132L2.97636 24.8909C1.59993 22.4481 0.877865 19.6817 0.885387 16.8536C0.885387 7.99179 7.9255 0.786764 16.5677 0.786764C20.7647 0.786764 24.7059 2.45895 27.6619 5.49508C30.6253 8.5312 32.2575 12.5691 32.25 16.8613C32.25 25.7231 25.2099 32.9281 16.5602 32.9281H16.5526C13.9276 32.9281 11.3478 32.25 9.05372 30.9708L0.75 33.2132ZM9.45236 28.0657L9.92621 28.3585C11.9269 29.576 14.221 30.2156 16.5602 30.2233H16.5677C23.7507 30.2233 29.6024 24.2358 29.6024 16.869C29.6024 13.3012 28.2485 9.94909 25.789 7.42155C23.3295 4.89401 20.0501 3.50695 16.5677 3.50695C9.38466 3.49924 3.53295 9.48674 3.53295 16.8536C3.53295 19.3734 4.2174 21.8316 5.52614 23.9584L5.83452 24.467L4.51826 29.3911L9.45236 28.0657Z" fill="url(#paint1_linear_48_296)"/>
<path fill-rule="evenodd" clip-rule="evenodd" d="M12.3986 9.8115C12.0915 9.15518 11.7686 9.14009 11.4772 9.13254C11.241 9.125 10.9653 9.125 10.6897 9.125C10.4141 9.125 9.97304 9.22307 9.59503 9.61535C9.21702 10.0076 8.16174 10.9582 8.16174 12.897C8.16174 14.8282 9.63441 16.6991 9.83916 16.9631C10.0439 17.2272 12.6821 21.3235 16.8481 22.9002C20.3132 24.2128 21.022 23.9488 21.7701 23.8809C22.5183 23.813 24.1957 22.9304 24.5422 22.01C24.8808 21.0897 24.8808 20.3051 24.7785 20.1391C24.6761 19.9732 24.4004 19.8751 23.9909 19.6789C23.5814 19.4828 21.5654 18.5323 21.1874 18.3965C20.8093 18.2682 20.5337 18.2003 20.266 18.5926C19.9903 18.9849 19.2028 19.8675 18.9665 20.1316C18.7303 20.3956 18.4862 20.4258 18.0766 20.2297C17.6671 20.0335 16.3441 19.6186 14.7769 18.2758C13.5563 17.2347 12.7294 15.9447 12.4931 15.5524C12.2569 15.1601 12.4695 14.9489 12.6742 14.7528C12.8554 14.5793 13.0838 14.2926 13.2885 14.0663C13.4933 13.84 13.5641 13.674 13.698 13.4099C13.8319 13.1459 13.7689 12.9196 13.6665 12.7234C13.5641 12.5349 12.7609 10.5885 12.3986 9.8115Z" fill="white"/>
<defs>
<linearGradient id="paint0_linear_48_296" x1="16.036" y1="32.2852" x2="16.036" y2="1.71216" gradientUnits="userSpaceOnUse">
<stop stop-color="#3BB51D"/>
<stop offset="1" stop-color="#64D62F"/>
</linearGradient>
<linearGradient id="paint1_linear_48_296" x1="16.5031" y1="33.2102" x2="16.5031" y2="0.786764" gradientUnits="userSpaceOnUse">
<stop stop-color="#F9F9F9"/>
<stop offset="1" stop-color="white"/>
</linearGradient>
</defs>
</svg>
