<svg width="41" height="42" viewBox="0 0 41 42" fill="none" xmlns="http://www.w3.org/2000/svg">
<g filter="url(#filter0_bd_119_847)">
<path d="M4.75 32.2864L6.91276 24.4361C5.57427 22.1404 4.87099 19.5286 4.87099 16.8642C4.87856 8.50952 11.7071 1.71289 20.101 1.71289C24.177 1.71289 27.9959 3.2935 30.8695 6.15365C33.7431 9.01381 35.3235 12.8223 35.3235 16.8717C35.3235 25.2264 28.4874 32.023 20.101 32.023H20.0935C17.5451 32.023 15.042 31.3832 12.8187 30.1789L4.75 32.2864Z" fill="url(#paint0_linear_119_847)"/>
<path d="M4.75 33.2131L6.97636 24.8907C5.59993 22.4479 4.87787 19.6815 4.88539 16.8534C4.88539 7.99165 11.9255 0.786621 20.5677 0.786621C24.7647 0.786621 28.7059 2.4588 31.6619 5.49493C34.6253 8.53106 36.2575 12.569 36.25 16.8612C36.25 25.7229 29.2099 32.928 20.5602 32.928H20.5526C17.9276 32.928 15.3478 32.2499 13.0537 30.9707L4.75 33.2131ZM13.4524 28.0655L13.9262 28.3584C15.9269 29.5759 18.221 30.2155 20.5602 30.2232H20.5677C27.7507 30.2232 33.6024 24.2357 33.6024 16.8689C33.6024 13.301 32.2485 9.94895 29.789 7.42141C27.3295 4.89387 24.0501 3.50681 20.5677 3.50681C13.3847 3.4991 7.53295 9.4866 7.53295 16.8534C7.53295 19.3733 8.2174 21.8315 9.52614 23.9583L9.83452 24.4669L8.51826 29.391L13.4524 28.0655Z" fill="url(#paint1_linear_119_847)"/>
<path fill-rule="evenodd" clip-rule="evenodd" d="M16.3987 9.8115C16.0916 9.15518 15.7687 9.14009 15.4773 9.13254C15.2411 9.125 14.9654 9.125 14.6898 9.125C14.4142 9.125 13.9732 9.22307 13.5952 9.61535C13.2171 10.0076 12.1619 10.9582 12.1619 12.897C12.1619 14.8282 13.6345 16.6991 13.8393 16.9631C14.044 17.2272 16.6822 21.3235 20.8482 22.9002C24.3133 24.2128 25.0221 23.9488 25.7702 23.8809C26.5184 23.813 28.1958 22.9304 28.5423 22.01C28.881 21.0897 28.881 20.3051 28.7786 20.1391C28.6762 19.9732 28.4006 19.8751 27.9911 19.6789C27.5815 19.4828 25.5655 18.5323 25.1875 18.3965C24.8095 18.2682 24.5338 18.2003 24.2661 18.5926C23.9904 18.9849 23.2029 19.8675 22.9667 20.1316C22.7304 20.3956 22.4863 20.4258 22.0768 20.2297C21.6673 20.0335 20.3442 19.6186 18.7771 18.2758C17.5564 17.2347 16.7295 15.9447 16.4932 15.5524C16.257 15.1601 16.4696 14.9489 16.6744 14.7528C16.8555 14.5793 17.0839 14.2926 17.2886 14.0663C17.4934 13.84 17.5643 13.674 17.6981 13.4099C17.832 13.1459 17.769 12.9196 17.6666 12.7234C17.5643 12.5349 16.761 10.5885 16.3987 9.8115Z" fill="white"/>
</g>
<defs>
<filter id="filter0_bd_119_847" x="0.75" y="-3.21338" width="39.5" height="44.4263" filterUnits="userSpaceOnUse" color-interpolation-filters="sRGB">
<feFlood flood-opacity="0" result="BackgroundImageFix"/>
<feGaussianBlur in="BackgroundImageFix" stdDeviation="2"/>
<feComposite in2="SourceAlpha" operator="in" result="effect1_backgroundBlur_119_847"/>
<feColorMatrix in="SourceAlpha" type="matrix" values="0 0 0 0 0 0 0 0 0 0 0 0 0 0 0 0 0 0 127 0" result="hardAlpha"/>
<feOffset dy="4"/>
<feGaussianBlur stdDeviation="2"/>
<feComposite in2="hardAlpha" operator="out"/>
<feColorMatrix type="matrix" values="0 0 0 0 0.176471 0 0 0 0 0.207843 0 0 0 0 0.282353 0 0 0 0.24 0"/>
<feBlend mode="normal" in2="effect1_backgroundBlur_119_847" result="effect2_dropShadow_119_847"/>
<feBlend mode="normal" in="SourceGraphic" in2="effect2_dropShadow_119_847" result="shape"/>
</filter>
<linearGradient id="paint0_linear_119_847" x1="20.036" y1="32.2849" x2="20.036" y2="1.71182" gradientUnits="userSpaceOnUse">
<stop stop-color="#3BB51D"/>
<stop offset="1" stop-color="#64D62F"/>
</linearGradient>
<linearGradient id="paint1_linear_119_847" x1="20.5031" y1="33.21" x2="20.5031" y2="0.786621" gradientUnits="userSpaceOnUse">
<stop stop-color="#2D3548"/>
<stop offset="1" stop-color="#2D3548"/>
</linearGradient>
</defs>
</svg>
